name C:\Users\u0101727\Documents\MyRepositories\upper-imu-dc\OpenSim\subject0\MA\train_motion_filt.mot									
datacolumns 10									
datarows 62									
range 3.63 4.24									
endheader 									
time	clav_prot	clav_elev	scapula_abduction	scapula_elevation	scapula_upward_rot	scapula_winging	plane_elv	shoulder_elv	axial_rot
3.63	-42.97627279	9.86075102	-0.44363743	-1.47097284	79.59717874	-11.82826525	40.27380563	85.22620725	-7.23228666
3.64	-42.81712816	9.8583556	-0.31213971	-1.47681887	79.41919494	-11.75625567	40.46808284	85.08808141	-7.27128331
3.65	-42.65905298	9.8554004	-0.18185082	-1.48290493	79.24180523	-11.68511095	40.66544449	84.94652589	-7.3134415
3.66	-42.50232625	9.85188653	-0.05319038	-1.48924912	79.06508278	-11.61498058	40.86567795	84.80154886	-7.35820251
3.67	-42.34718559	9.84777497	0.07348307	-1.4958957	78.88907679	-11.54597926	41.06860462	84.65317148	-7.40500653
3.68	-42.19382253	9.84298831	0.19787997	-1.50291347	78.71381256	-11.47818529	41.2740793	84.50142959	-7.45330336
3.69	-42.04237955	9.83741514	0.31978449	-1.51039232	78.53929237	-11.41164053	41.4819886	84.3463749	-7.50256211
3.7	-41.89294932	9.83091726	0.43905555	-1.51843807	78.3654972	-11.34635225	41.69224863	84.18807538	-7.55228053
3.71	-41.7455763	9.82333957	0.55562389	-1.52716551	78.19238946	-11.28229679	41.90480233	84.02661513	-7.60199443
3.72	-41.60026072	9.81452215	0.66948507	-1.53669023	78.01991659	-11.21942501	42.11961674	83.86209335	-7.65128793
3.73	-41.45696487	9.80431366	0.78068887	-1.54711958	77.84801536	-11.15766908	42.33668033	83.69462268	-7.6998046
3.74	-41.31562116	9.79258503	0.8893257	-1.55854363	77.67661655	-11.0969502	42.55600073	83.52432656	-7.7472597
3.75	-41.17614158	9.77924202	0.99551116	-1.57102696	77.50564995	-11.03718672	42.77760244	83.35133596	-7.79345314
3.76	-41.03842777	9.76423563	1.09936996	-1.58460208	77.33504919	-10.97830188	43.00152443	83.17578553	-7.8382823
3.77	-40.90238092	9.7475689	1.20102083	-1.59926519	77.16475626	-10.9202305	43.22781699	82.99780961	-7.88175406
3.78	-40.76791079	9.72929948	1.30056354	-1.61497492	76.9947255	-10.86292417	43.45653724	82.8175385	-7.92399462
3.79	-40.6349431	9.70953747	1.39806932	-1.63165415	76.82492684	-10.80635437	43.68774298	82.6350955	-7.96525637
3.8	-40.50342487	9.68843844	1.49357535	-1.64919505	76.655348	-10.75051335	43.92148462	82.45059528	-8.00592053
3.81	-40.37332763	9.66619229	1.58708303	-1.66746691	76.48599561	-10.69541294	44.15779552	82.26414377	-8.04649486
3.82	-40.24464841	9.64300887	1.67855984	-1.68632596	76.31689498	-10.6410816	44.39668143	82.07583995	-8.08760591
3.83	-40.11740912	9.61910197	1.76794333	-1.70562648	76.14808854	-10.58756021	44.63811004	81.88577938	-8.12998543
3.84	-39.99165459	9.59467339	1.85514631	-1.72523164	75.97963291	-10.53489747	44.88200181	81.69405944	-8.17445134
3.85	-39.86744986	9.569899	1.94006184	-1.74502321	75.81159478	-10.48314541	45.12822307	81.50078563	-8.22188376
3.86	-39.74487682	9.54491825	2.02256772	-1.76490878	75.64404591	-10.43235554	45.37658216	81.30607872	-8.27319731
3.87	-39.62403033	9.51982836	2.10253017	-1.78482586	75.47705758	-10.3825759	45.62682871	81.11008181	-8.32931123
3.88	-39.50501352	9.49468354	2.17980742	-1.80474248	75.31069488	-10.33384895	45.87865583	80.91296691	-8.39111881
3.89	-39.38793211	9.46949872	2.25425414	-1.82465456	75.1450112	-10.28621	46.13170468	80.71494031	-8.45945801
3.9	-39.27288738	9.44425703	2.32572743	-1.84458061	74.98004319	-10.23968583	46.38557052	80.51624644	-8.53508455
3.91	-39.15996792	9.41891923	2.39409516	-1.86455493	74.81580643	-10.19429324	46.63980969	80.31716966	-8.61864847
3.92	-39.0492402	9.39343365	2.45924658	-1.88462016	74.65229179	-10.15003708	46.89394694	80.11803411	-8.71067493
3.93	-38.94073879	9.36774512	2.52110478	-1.90482064	74.48946264	-10.10690795	47.14748282	79.91920137	-8.81154915
3.94	-38.83445675	9.34180165	2.57963987	-1.92519701	74.32725281	-10.06487944	47.39990136	79.72106605	-8.92150525
3.95	-38.73033726	9.31555832	2.6348815	-1.94578289	74.16556536	-10.02390546	47.65067788	79.52404951	-9.04061856
3.96	-38.6282673	9.28897839	2.6869292	-1.96660351	74.00427209	-9.98391786	47.89928756	79.32859176	-9.16880057
3.97	-38.52807421	9.26203191	2.73595903	-1.98767625	73.84321394	-9.94482491	48.14521469	79.13514183	-9.30579604
3.98	-38.42952563	9.23469288	2.78222538	-2.00901234	73.68220209	-9.90651105	48.38796294	78.9441469	-9.45118184
3.99	-38.33233313	9.20693577	2.8260572	-2.03061934	73.52101987	-9.86883813	48.62706642	78.75604034	-9.6043672
4	-38.23615945	9.17873263	2.86784825	-2.05250338	73.35942536	-9.83164849	48.8621017	78.57122943	-9.76459551
4.01	-38.14062895	9.15005164	2.90804183	-2.07467076	73.19715441	-9.79476971	49.09270017	78.39008289	-9.93094772
4.02	-38.04534072	9.12085782	2.94711058	-2.09712818	73.03392393	-9.758021	49.31856063	78.21291913	-10.10234789
4.03	-37.94988323	9.09111615	2.98553276	-2.11988155	72.86943527	-9.72122073	49.53946145	78.03999582	-10.2775713
4.04	-37.85384973	9.06079689	3.02376669	-2.14293335	72.70337736	-9.68419463	49.75527156	77.87150135	-10.45525573
4.05	-37.75685322	9.02988256	3.06222521	-2.16627875	72.53542957	-9.64678405	49.9659596	77.70754873	-10.63391638
4.06	-37.65853996	8.99837553	3.10125213	-2.18990138	72.36526434	-9.60885354	50.17160032	77.5481722	-10.81196482
4.07	-37.55860089	8.96630488	3.14110263	-2.21376929	72.19254969	-9.57029702	50.37237728	77.39332651	-10.98773189
4.08	-37.4567803	8.93373137	3.18192893	-2.23783202	72.01695195	-9.53104221	50.56858139	77.24288835	-11.15949431
4.09	-37.35288159	8.90074926	3.22377252	-2.26201953	71.83813902	-9.4910526	50.76060466	77.09665949	-11.32550405
4.1	-37.24676993	8.86748442	3.26656318	-2.28624347	71.65578454	-9.45032724	50.94892928	76.95437038	-11.48401985
4.11	-37.13837239	8.83408851	3.31012489	-2.31040074	71.46957331	-9.40889799	51.13411224	76.81568375	-11.63333974
4.12	-37.02767549	8.80072976	3.35418786	-2.33437921	71.27920799	-9.36682498	51.31676633	76.68019719	-11.77183392
4.13	-36.91472093	8.76758149	3.39840562	-2.35806488	71.084417	-9.32419047	51.49753865	76.54744467	-11.89797752
4.14	-36.79959978	8.73480953	3.44237561	-2.38134953	70.88496326	-9.28109194	51.67708801	76.41689711	-12.01038269
4.15	-36.68244568	8.70256031	3.48566152	-2.40413809	70.68065296	-9.23763492	51.85606295	76.28796295	-12.10782953
4.16	-36.56342745	8.67095073	3.52781562	-2.42635463	70.47134358	-9.19392634	52.03508201	76.15998962	-12.18929486
4.17	-36.44274139	8.64006122	3.56839912	-2.44794654	70.25695013	-9.15006874	52.21471778	76.03226754	-12.25397765
4.18	-36.32060383	8.60993232	3.60699924	-2.46888632	70.03744855	-9.10615582	52.39548605	75.90403788	-12.30131953
4.19	-36.19724391	8.58056524	3.6432416	-2.48917096	69.81287567	-9.06226961	52.57784068	75.77450476	-12.3310189
4.2	-36.07289716	8.55192611	3.67679716	-2.50881903	69.58332523	-9.0184791	52.76217444	75.64285257	-12.34303724
4.21	-35.94779992	8.5239532	3.70738373	-2.52786597	69.34893997	-8.97484039	52.94882516	75.50826753	-12.33759724
4.22	-35.82218483	8.49656635	3.73476211	-2.54635799	69.10990053	-8.93139814	53.13808629	75.36996245	-12.31517267
4.23	-35.69627757	8.46967755	3.75872788	-2.56434544	68.86641199	-8.88818785	53.33022003	75.2272027	-12.2764711
4.24	-35.570295	8.44320165	3.77910008	-2.58187601	68.61868963	-8.84523886	53.52547124	75.07933102	-12.22241073
